<svg xmlns="http://www.w3.org/2000/svg" viewBox="0 0 32 32" width="32" height="32">
  <!-- Rounded square background -->
  <rect width="32" height="32" rx="7" fill="#2563EB"/>

  <!-- Document body -->
  <rect x="7" y="6" width="14" height="18" rx="2" fill="white" fill-opacity="0.18"/>

  <!-- Document fold corner -->
  <polygon points="17,6 21,6 21,10" fill="white" fill-opacity="0.28"/>
  <polyline points="17,6 17,10 21,10" fill="none" stroke="white" stroke-opacity="0.35" stroke-width="1"/>

  <!-- Document lines -->
  <line x1="9.5" y1="13" x2="18.5" y2="13" stroke="white" stroke-opacity="0.6" stroke-width="1.5" stroke-linecap="round"/>
  <line x1="9.5" y1="16.5" x2="17.5" y2="16.5" stroke="white" stroke-opacity="0.6" stroke-width="1.5" stroke-linecap="round"/>
  <line x1="9.5" y1="20" x2="18.5" y2="20" stroke="white" stroke-opacity="0.6" stroke-width="1.5" stroke-linecap="round"/>

  <!-- AI spark (4-pointed star) -->
  <g transform="translate(22, 10)">
    <circle cx="0" cy="0" r="5" fill="white" fill-opacity="0.15"/>
    <path d="M0,-5 C0.7,-1.5 1.5,0 5,0 C1.5,0.7 0.7,1.5 0,5 C-0.7,1.5 -1.5,0.7 -5,0 C-1.5,-0.7 -0.7,-1.5 0,-5 Z" fill="white"/>
    <circle cx="0" cy="0" r="1.2" fill="#2563EB"/>
  </g>
</svg>
